<svg xmlns="http://www.w3.org/2000/svg" viewBox="0 0 200.86 142.62"><g id="Слой_2" data-name="Слой 2"><g id="Слой_1-2" data-name="Слой 1"><path d="M84.23,17.34C71.71,22.48,62.06,30.55,56,42.52a38.5,38.5,0,0,0-4.19,14.3c3.41,1.11,6.73,1.91,9.81,3.26C76,66.36,85.16,77.23,87.73,92.64c4,23.75-9.42,43.79-33.52,48.88-15.29,3.23-28.89-.63-40-11.79C6.08,121.54,2.11,111.19.67,99.9-4.83,56.8,23.8,11.14,73.43.17c2-.46,3,0,3.82,1.92C79.39,7.15,81.81,12.09,84.23,17.34Z"/><path d="M196.64,17.27C178.89,25,167.28,37.43,164,56.94c.93.28,1.66.56,2.43.71,17.18,3.49,31.2,18,33.81,35.23,2.06,13.5-.82,25.67-10.25,35.88A42.6,42.6,0,0,1,164.76,142c-12.93,2.06-24.73-.84-34.89-9.24-9-7.41-14-17.29-16-28.54-5-27.81,3-52.2,20.77-73.58C148,14.53,165.49,5,185.67.23c2-.49,3.18-.16,4.07,2C191.84,7.19,194.24,12.06,196.64,17.27Z"/></g></g></svg>